<?xml version='1.0' encoding='utf-8'?>
<svg xmlns="http://www.w3.org/2000/svg" enable-background="new 0 0 2000 2000" version="1.1" viewBox="0 0 2e3 2e3"> <style type="text/css"> .st0{fill:#FFFFFF;} .st1{fill:#060706;} .st2{fill:#232423;} .st3{fill:#342017;} .st4{fill:#FAFAFA;} .st5{fill:#D3E5E6;} .st6{fill:#81483D;} .st7{fill:#624344;} .st8{fill:#BAD4D6;} .st9{fill:#C4BEC4;} .st10{fill:#73A35B;} .st11{fill:#557A8B;} .st12{fill:#224E5F;} .st13{fill:#FBD4CD;} .st14{fill:#95BBC5;} .st15{fill:#BA8E62;} .st16{fill:#D49974;} </style> <rect class="st0" width="2e3" height="2e3"/> <path class="st1" d="m1380.8 1458c-8.83 26.29-15.87 53.34-26.84 78.7-24.9 57.57-51.07 114.62-77.99 171.28-22.31 46.97-53.51 85.6-106.36 100.88 1.73-3.72 3.46-7.45 5.19-11.17-1.34-11.4 1.28-28.37-4.99-32.82-8.39-5.96-23.67-2.21-35.99-2.63-5.85-2.01-11.71-4.01-17.56-6.02-14.56-25.33-32.64-18.47-51.38-5.61-4.09-1.5-8.19-3-12.28-4.49-10.38-14.46-20.17-31.08-40.1-11.11-3.62-0.19-7.24-0.38-10.86-0.58-3.95-8.46-7.9-16.93-11.85-25.39-9.76 8.28-19.52 16.57-29.28 24.85-2.48 2.2-4.97 4.41-7.45 6.61-1.99-7.18-3.98-14.36-6.27-22.67-32.59 25.72-70.53 39.57-112.15 43.72-3.92 0.83-7.83 1.65-11.74 2.48-3.46 0.36-6.91 0.72-10.37 1.08-0.03-3.19-0.06-6.37-0.09-9.55 1.14-0.46 2.32-0.75 3.54-0.89-0.56-5.21-1.13-10.42-1.69-15.63-12.93-29.97-26.48-33.38-52.94-13.34-4.01-0.52-8.02-1.05-12.03-1.57-3.67-19.72-14.15-31.35-35.58-29.97-9.39-0.29-18.78-0.58-28.17-0.87-22.66-11.37-25.86 2.3-25.85 20.09l-10.05-5.1c-0.02-6.95-2.37-14.99 0.3-20.68 19.31-41.14 1.52-75.44-13.7-113.39-14.27-35.57-18.44-75.78-23.11-114.43-3.89-32.16 7.46-61.95 27.67-87.76 2.58-3.44 5.16-6.88 7.74-10.33 73.31 148.3 222.79 226.37 384.24 199.81 7.31-1.2 16.27-8.79 19.47-15.71 11.99-25.94 21.9-52.83 32.6-79.37 52.7-74.59 123.7-111.14 215.81-103.8 29.55 10.17 58.81 20.72 69.85 54.57 3.41 13.61 6.84 27.21 10.26 40.81zm-338.51 117.89h-112.5c5.85 39.36 11.23 75.58 17.12 115.26 18.47-30.15 27.25-66.33 70.44-63.71 3.66 0.22 9.32-7.75 11.51-12.98 5.34-12.7 9.17-26.02 13.43-38.57z"/> <path class="st1" d="m460.79 899.06c-19.08-38.02-24.35-78.81-18.01-119.96 10.64-69.05 24.62-137.57 36.03-206.51 1.33-8.05-1.87-21.68-7.64-25.35-105.93-67.17-68.57-220.32 6.42-266.46 31.86-19.61 69.21-33.85 105.93-41.15 51.31-10.2 86.49 10.75 121.36 59.7 117.58-49.67 238.57-53.05 361.38-24.36 45.24-97.81 159.71-116.92 247.66-41.61 93.92 80.43 74.84 189.76 9.76 244.84-3.4 2.88-4.43 8.55-6.56 12.92-0.65 6.11-1.3 12.21-1.95 18.32-4.35-7.53-8.65-15.09-13.04-22.59-33.83-57.76-73.23-110.51-131.65-146.12-23.53-13.2-45.83-29.68-70.8-39.06-136.1-51.11-270.89-44.36-402.79 15.49-93.19 42.29-159.27 111.98-189.25 209.83-20.92 68.26-33.06 139.25-48.04 209.26-11.16 52.2-10.8 104.27 7.7 155.22-2.19 2.53-4.35 5.06-6.51 7.59z"/> <path class="st1" d="m555.59 1267.2c-21.33-36.03-39.04-72.86-32.46-116.87 7.74-51.72 25.7-97.05 73.35-125.19l18.12-11.49c46.63 12.79 93.26 25.57 139.89 38.36 0.01 3.33 0.01 6.67 0.02 10 0.11 17.61 0.22 35.22 0.34 52.84-19.31-5.88-38.63-11.76-57.94-17.65-0.91 2.67-1.82 5.34-2.73 8 8.29 3.51 16.59 6.98 24.87 10.53 26.9 11.55 47.43 29.48 55.88 58.41 12.34 42.25-0.77 77.72-32.09 106.45-31.92 29.28-69.22 29.44-107.83 15.4-11.12-4.04-21.89-9.03-32.83-13.59l0.44 0.46c-1.96-2.43-3.91-4.87-5.87-7.3-6.45-27.4-17.99-0.61-26.84-2.52-3.25-0.15-6.49-0.29-9.74-0.44-1.52-1.8-3.05-3.6-4.58-5.4z"/> <path class="st2" d="m1380.8 1458c-3.42-13.6-6.85-27.2-10.27-40.8 4.68-6.5 11.6-12.35 13.7-19.6 47.75-164.61 20.66-324.36-32.49-486.66-11.46 9.37-21.1 17.25-30.74 25.13-5.4-0.67-10.81-1.34-16.21-2 27.85-17.98 55.7-35.97 83.79-54.12-3.64-3.96-7.12-7.74-10.6-11.52 2.67-0.55 5.33-1.09 8-1.64 10.68-1.16 21.36-2.32 32.05-3.48 21.58-11.1 43.15-22.2 69.9-35.95-12.79-6.16-20.16-9.7-27.52-13.24-0.58-1.05-0.98-2.16-1.2-3.35 52.22 21.11 82.96-23.59 125.8-37.21-7.89-10.97-13.42-18.67-18.95-26.36-3.07-12.69-6.15-25.39-9.68-39.98-16.79 7.55-30.57 13.75-44.35 19.95-1.45-1.53-2.9-3.07-4.35-4.6 17.61-9.41 35.22-18.81 53.02-28.32 11.62 28.41 22.6 55.25 33.72 82.42-75.63 43.12-152.73 87.08-232 132.28 65.03 180.88 81.28 363.82 18.38 549.05z"/> <path class="st2" d="m1315.2 509.43c0.65-6.11 1.3-12.21 1.95-18.32 52.43 93.93 69.78 193.97 50.62 304.3 48.63-25.3 94.31-49.07 139.99-72.84 1.45 1.53 2.9 3.07 4.35 4.6-94.38 53.73-188.76 107.45-283.75 161.53 3.53 14.62 6.76 28 9.99 41.39-3.02-0.07-6.02-0.14-9.03-0.21-3.18-12.18-6.36-24.37-9.83-37.64-25.15 12.02-47.78 22.84-70.42 33.66l-7.02-6.54c50.61-26.78 99.5-57.81 152.31-79.17 55.31-22.37 70.38-62.41 69.17-115.27-0.42-18.35 1.53-37.47-2.91-54.88-13.78-53.88-30.1-107.12-45.42-160.61z"/> <path class="st2" d="m555.59 1267.2c1.53 1.8 3.06 3.6 4.59 5.4-2.98 1.55-5.81 3.52-8.95 4.6-38.32 13.18-41.42 21.56-20.25 55.95 2.22 3.61 5.3 6.69 7.98 10.02 6.26 10.58 9.85 26.86 27.61 17.6 23.64-12.33 46.51-26.17 70.45-39.78-17.89-10.36-33.47-19.38-49.04-28.4-6.02-6.51-12.04-13.02-18.06-19.54 8.85 1.91 20.38-24.88 26.84 2.52 1.96 2.43 3.91 4.87 5.87 7.3 0 0-0.44-0.46-0.44-0.46 30.52 34.15 85.5 42.59 130.45 20.34 7.16-3.54 15.03-5.66 22.57-8.43-5.88 5.74-10.82 14.58-17.79 16.68-31.39 9.46-63.36 17.02-96.14 25.52 1.65 5.7 4.48 15.46 7.31 25.22-2.58 3.44-5.16 6.89-7.74 10.33-3.03-11.39-6.05-22.77-9.97-37.52-21.22 12.11-39.23 21.98-56.82 32.56-14.53 8.74-26.22 6.65-35.91-7.2-3.98-5.69-8.26-11.19-12.06-17-31.67-48.52-26.22-62.43 29.5-75.71z"/> <path class="st3" d="m1174.8 1797.7c-1.73 3.72-3.46 7.45-5.19 11.17-74.73 12.27-142.37-4.65-202.75-50.03-5.87-4.41-9.25-12.14-13.79-18.33 2.48-2.2 4.97-4.41 7.45-6.61 9.99 10.45 20 20.9 31.32 32.74 4.44-14.56 7.13-23.38 9.81-32.21 3.62 0.19 7.24 0.38 10.85 0.57-10.79 36.96-8.26 41.11 31.38 48.45 2.89-12.38 5.8-24.86 8.72-37.34 4.09 1.5 8.19 3 12.28 4.49-3.57 12.26-7.13 24.53-10.98 37.76 7 2.73 12.36 5.49 18.05 6.92 38.73 9.75 45.34 4.23 44.36-36.47-0.02-0.87-0.04-1.73-0.06-2.6 5.85 2.01 11.71 4.02 17.56 6.02-3.6 12.58-7.19 25.16-11.95 41.85 20.84-2.51 36.89-4.45 52.94-6.38z"/> <path class="st2" d="m812.46 1755.6c0.03 3.18 0.06 6.37 0.09 9.55-46.97 4.58-92.24-2.63-136-19.84-16.62-6.54-28.69-16.83-26.86-36.99l10.05 5.1c5.73 7.77 11.47 15.55 17.2 23.32 2.88-1.24 5.76-2.48 8.65-3.72v-39.7c9.39 0.29 18.78 0.58 28.17 0.86-8.58 13.1-17.15 26.21-29.13 44.54 25.89 5.39 43.4 9.03 62.47 13 1.01-12.37 1.62-19.96 2.24-27.55 4.01 0.52 8.02 1.05 12.03 1.56-2.13 8.75-4.26 17.51-7.26 29.87h58.35z"/> <path class="st2" d="m614.61 1013.6-18.12 11.49c-5.84-5.32-10.85-12.34-17.66-15.7-50.58-24.91-97.04-53.91-118.04-110.34 2.16-2.53 4.33-5.06 6.49-7.59 20.07 23.83 40.15 47.66 60.22 71.48 29.03 16.89 58.07 33.77 87.11 50.66z"/> <path class="st2" d="m822.92 1764c3.91-0.83 7.83-1.65 11.74-2.48-3.91 0.83-7.83 1.66-11.74 2.48z"/> <path class="st4" d="m1300.7 1362.6c-92.11-7.34-163.1 29.21-215.81 103.8-60.51 5.37-120.93 13.4-181.54 15.26-48.27 1.48-95.32-11.31-137.41-36.06-35.24-20.72-63.21-49.56-84.47-81.87 28.11-12.6 53.16-22.01 76.46-34.63 68.03-36.85 134.79-76.09 203.28-112.04 25.8-13.54 53.27-15.53 81.13 3.36 19.72 13.37 43.65 24.21 66.98 27.72 32.98 4.96 69.24 13.32 97.09-17.12 50.92-14.11 88.41-44.76 112.69-91.63 4.44 5.32 12.65 10.56 12.76 15.96 1.47 70.78 7.72 142.5-31.16 207.25z"/> <path class="st5" d="m1206.4 1231.1c-27.85 30.45-64.11 22.09-97.09 17.12-23.32-3.51-47.25-14.35-66.98-27.72-27.86-18.89-55.33-16.9-81.13-3.36-68.49 35.95-135.24 75.19-203.28 112.04-23.3 12.62-48.35 22.02-76.46 34.63 21.26 32.31 49.23 61.15 84.47 81.87 42.09 24.75 89.15 37.54 137.41 36.06 60.61-1.86 121.04-9.89 181.54-15.26-10.69 26.54-20.61 53.43-32.6 79.37-3.2 6.92-12.16 14.5-19.47 15.71-161.45 26.56-310.93-51.51-384.24-199.81-2.83-9.76-5.66-19.52-7.31-25.22 32.78-8.51 64.75-16.06 96.14-25.52 6.97-2.1 11.92-10.94 17.79-16.68l-0.46-0.57 10.5-5.28 0.59 0.54c3.95-3.07 9.99-5.34 11.51-9.34 13.77-36.07 47.27-48.19 77.12-64.77 20.42-11.34 40.95-22.48 61.43-33.7 6.68-3.35 13.36-6.71 20.04-10.06 16.06-12.15 30.97-12.97 47.09 1.37 7.91 7.03 19.27 10.18 29.07 15.09 60.67 32.9 124.07 53.48 194.32 43.49z"/> <path class="st5" d="m1300.7 1362.6c38.88-64.76 32.63-136.47 31.16-207.26-0.11-5.41-8.32-10.65-12.76-15.96 25.33-67.55 26.32-135.33 1.93-203.34 9.64-7.88 19.27-15.75 30.74-25.13 53.15 162.3 80.23 322.06 32.49 486.66-2.1 7.25-9.02 13.1-13.7 19.6-11.06-33.85-40.31-44.4-69.86-54.57z"/> <path class="st6" d="m1116.3 1756.2c0.02 0.87 0.04 1.73 0.06 2.6 0.98 40.7-5.64 46.22-44.36 36.47-5.69-1.43-11.05-4.2-18.05-6.92 3.85-13.23 7.41-25.49 10.98-37.76 18.73-12.85 36.8-19.72 51.37 5.61z"/> <path class="st6" d="m749.34 1724.1c-0.62 7.59-1.23 15.18-2.24 27.55-19.08-3.97-36.58-7.61-62.47-13 11.98-18.32 20.55-31.43 29.13-44.54 21.44-1.35 31.92 10.27 35.58 29.99z"/> <path class="st6" d="m812.46 1755.6h-58.35c3-12.36 5.13-21.12 7.26-29.87 26.47-20.03 40.01-16.62 52.93 13.35 0.56 5.21 1.13 10.42 1.7 15.63-1.22 0.13-2.4 0.43-3.54 0.89z"/> <path class="st6" d="m1174.8 1797.7c-16.05 1.94-32.1 3.88-52.93 6.39 4.76-16.68 8.35-29.27 11.95-41.85 12.32 0.43 27.6-3.32 35.99 2.63 6.27 4.46 3.65 21.43 4.99 32.83z"/> <path class="st6" d="m1052.6 1746.1c-2.91 12.48-5.83 24.97-8.72 37.34-39.65-7.34-42.18-11.49-31.38-48.45 19.92-19.97 29.71-3.35 40.1 11.11z"/> <path class="st7" d="m1001.7 1734.4c-2.69 8.82-5.38 17.65-9.81 32.21-11.33-11.84-21.33-22.29-31.32-32.74 9.77-8.29 19.53-16.57 29.29-24.86 3.94 8.46 7.89 16.92 11.84 25.39z"/> <path class="st7" d="m685.59 1693.3v39.7c-2.88 1.24-5.76 2.48-8.65 3.72-5.73-7.77-11.46-15.55-17.2-23.32-0.01-17.8 3.19-31.46 25.85-20.1z"/> <path class="st2" d="m816 1754.7c-0.57-5.21-1.14-10.42-1.7-15.63 0.58 5.21 1.14 10.42 1.7 15.63z"/> <path class="st4" d="m527.5 962.95c-20.07-23.83-40.15-47.66-60.22-71.48-18.5-50.95-18.86-103.02-7.7-155.22 14.97-70.01 27.12-141.01 48.04-209.26 29.99-97.84 96.07-167.54 189.25-209.83 131.9-59.85 266.69-66.6 402.79-15.49 24.97 9.38 47.27 25.86 70.8 39.06 11.24 20.11 22.18 40.4 33.77 60.31 50.82 87.27 71.46 182.26 63.48 281.78-2.61 32.57-22.67 63.74-34.75 95.54-1.62-38.83-23.47-61.17-62.02-63.42-0.13-14.71 2.19-29.93-0.8-44.03-18.18-85.82-122.86-157.09-209.12-143.46-43.51 6.87-73.3 37.13-69.86 80.38 2.33 29.33 10.72 60.55 25.06 86.07 31.56 56.16 86.49 78.54 147.85 87.31 0.03 2.57 0.05 5.14 0.08 7.71-20.48 25.45-35.67 51.87-18 85.57 1.09 2.08-3.04 6.89-4.74 10.43-22.23-0.86-44.46-1.73-66.69-2.59-14.48 4.1-28.97 8.21-43.46 12.3 2.29-10.98 4.59-21.95 6.88-32.92 8.8-10.11 17.6-20.23 26.41-30.34 1.93-3.87 4.51-7.57 5.63-11.66 1.99-7.24 3.09-14.72 4.56-22.1-7.95 1.3-16.21 1.71-23.75 4.25-4.58 1.54-7.83 6.67-12.06 9.64-32.36 22.74-86.91 15.62-112.23-14.52 14.72-13.06 29.44-26.12 45.31-40.2-5.95-5.1-9.14-10.17-12.26-10.13-25.58 0.34-51.71-1.23-76.52 3.66-16.64 3.28-16.89 21.33-2.16 31.79 8.44 6 17.87 10.6 26.86 15.82-21.64 13.14-43.03 26.73-65.01 39.26-15.02 8.56-30.88 15.65-46.36 23.4 0.72 4.71 1.44 9.41 2.15 14.12 1.3 5.6 1.22 12.08 4.13 16.65 14.27 22.37 29.24 44.29 44.19 66.21 3.32 4.87 6.76 11.73 11.53 13.21 30.57 9.5 61.15 17.39 93.12 2.94 7.15-3.23 17.82 1.34 26.87 2.33l-5.7 19.11c-52.76 12.38-104.1 12.42-155.04-10.61-37.61-17.01-68.07-53.9-68.13-90.01 21.75-34.69 20.17-43.24-13.96-75.49 62.76-31.67 105.81-79.93 119.84-149.76 13.7-68.15-34.04-117.7-102.82-107.61-59.24 8.69-98.69 46.76-128.06 95.41-27.71 45.89-33.56 93.1 3.72 138.17-10.63 12.74-25.9 23.86-30.97 38.52-12.69 36.69 0.61 62.25 41.56 92.11-1.08 5.31-2.15 10.62-3.5 17.27-2.57 6.33-5.28 13.06-7.99 19.8z"/> <path class="st5" d="m1233 778.36c12.08-31.81 32.14-62.98 34.75-95.54 7.98-99.52-12.65-194.51-63.48-281.78-11.59-19.91-22.53-40.19-33.77-60.31 58.42 35.61 97.82 88.36 131.65 146.12 4.39 7.5 8.7 15.06 13.04 22.59 15.33 53.49 31.65 106.72 45.41 160.61 4.45 17.41 2.49 36.53 2.91 54.88 1.21 52.86-13.85 92.89-69.17 115.27-52.8 21.36-101.7 52.39-152.31 79.17-9.56 0.06-20.28 3-28.44-0.34-24.58-10.05-48.17-22.55-72.15-34.09 1.7-3.54 5.83-8.36 4.74-10.43-17.67-33.7-2.48-60.13 18-85.57 1.04 43.83 20.37 63.1 63.44 63.23 7.87 0.02 15.77-0.52 23.59 0.11 38.73 3.09 78.27-33.08 81.79-73.92z"/> <path class="st5" d="m649.65 894.54c0.06 36.1 30.52 73 68.13 90 50.93 23.03 102.28 22.99 155.04 10.61 3.31 12.44 6.62 24.89 11.79 44.3-46.94 4.52-88.52 8.52-130.11 12.53-46.63-12.79-93.26-25.57-139.89-38.36-29.04-16.89-58.08-33.77-87.11-50.66 2.71-6.74 5.43-13.48 7.98-19.8 1.35-6.65 2.43-11.96 3.5-17.27 10.04 2.23 20.01 5.79 30.14 6.34 11.32 0.61 24.62 1.84 33.81-3.17 16.83-9.21 31.28-22.78 46.72-34.52z"/> <path class="st2" d="m754.5 1052c41.58-4 83.17-8.01 130.11-12.53-5.16-19.41-8.48-31.85-11.79-44.3l5.7-19.11c5.11-31.23 21-56.13 44.87-76.33l7.77-5.25 0.09 0.2c14.48-4.1 28.97-8.2 43.45-12.31-1.29 10.52 1.02 24.79-4.91 30.47-5.6 5.38-19.85 1.73-30.3 2.06-7.54 2.83-19.06 3.53-21.91 8.87-10.35 19.37-24.12 39.96-25.2 60.68-3.63 69.81 26.24 125.74 81.87 167.92 12.61 8.38 25.22 16.76 37.83 25.15 0.01 3.36 0.02 6.71 0.03 10.07-9.8-4.91-21.16-8.06-29.07-15.09-16.12-14.35-31.03-13.52-47.09-1.37-0.79-1.48-1.76-2.84-2.89-4.08 5.63-4.67 11.27-9.34 22.12-18.34-12.07-9.38-21.28-16.54-30.49-23.7-27.73-39.73-27.73-39.73-69.62-14.98-3.72 2.2-7.47 4.37-11.25 6.46-46.62 25.8-46.62 25.8-35.9 75.92-1.67 11.67-3.34 23.34-5.39 37.73 38.21-18.3 73.9-35.4 109.59-52.49 1.19 1.27 2.45 2.45 3.8 3.54-20.48 11.23-41.01 22.36-61.43 33.7-29.85 16.58-63.35 28.7-77.12 64.77-1.53 4-7.57 6.27-11.51 9.34 1.69-6.08 1.93-13.13 5.28-18.08 36.78-54.35 33.14-104.33-11.52-150.18l1.29-8.73c9.53 6.74 19.06 13.49 29.36 20.78 34.82-18.85 70.5-38.17 107.17-58.02-5.06-11.41-9.18-20.71-11.07-24.97-46.12 4.28-88.98 8.25-131.84 12.22-0.02-3.35-0.02-6.68-0.03-10.02z"/> <path class="st8" d="m754.52 1062c42.86-3.97 85.72-7.94 131.84-12.22 1.89 4.26 6.01 13.56 11.07 24.97-36.68 19.86-72.36 39.17-107.17 58.02-10.3-7.29-19.83-14.03-29.33-20.75-2.11 0.81-4.25 1.59-6.39 2.38l0.32 0.43c-0.11-17.6-0.23-35.21-0.34-52.83z"/> <path class="st9" d="m759.6 1120.7c44.67 45.84 48.3 95.82 11.52 150.18-3.35 4.95-3.59 12-5.28 18.08l-0.6-0.54-10.5 5.28s0.46 0.58 0.46 0.57c-7.54 2.77-15.41 4.89-22.57 8.43-44.94 22.24-99.92 13.81-130.45-20.34 10.93 4.56 21.71 9.54 32.83 13.59 38.62 14.04 75.91 13.88 107.83-15.4 31.32-28.73 44.43-64.2 32.09-106.45-8.45-28.93-28.98-46.86-55.88-58.41-8.27-3.55-16.58-7.02-24.87-10.53 0.91-2.67 1.82-5.34 2.73-8 19.31 5.88 38.63 11.76 57.94 17.65l-0.32-0.43c1.69 2.1 3.38 4.21 5.07 6.32z"/> <path class="st10" d="m569.92 1273c6.02 6.51 12.04 13.02 18.06 19.54-10.8 8.27-22.52 15.6-32.09 25.1-7.09 7.04-11.39 16.89-16.94 25.48-2.68-3.33-5.75-6.41-7.97-10.02-21.17-34.38-18.07-42.76 20.25-55.95 3.14-1.08 5.97-3.04 8.95-4.6 3.25 0.16 6.49 0.31 9.74 0.45z"/> <path class="st9" d="m602.63 1282.8c-1.96-2.43-3.91-4.87-5.87-7.3 1.95 2.43 3.91 4.87 5.87 7.3z"/> <path class="st1" d="m1012.1 1187.6c-0.01-3.36-0.02-6.71-0.03-10.07 20.82 6.19 41.63 12.39 62.45 18.58 0-0.82-0.01-1.64-0.01-2.47-31.25-15.87-62.49-31.74-93.74-47.6-6.33-6-12.9-11.77-18.96-18.03-65.64-67.83-73.77-145.72-22.32-213.1 10.45-0.32 24.7 3.32 30.3-2.06 5.93-5.68 3.62-19.95 4.91-30.47 22.23 0.86 44.46 1.73 66.69 2.59 23.98 11.54 47.56 24.04 72.15 34.09 8.16 3.34 18.89 0.41 28.44 0.34l7.02 6.54c-4.26 2.61-8.51 5.23-16.13 9.92 14.15 7.63 25.4 13.7 36.64 19.76 48.35 29.3 60.06 28.75 89.54-4.19 11.99-5.05 23.99-10.11 35.98-15.16 3.26-0.72 6.51-1.44 9.77-2.16 5.4 0.67 10.81 1.34 16.21 2 24.39 68.02 23.4 135.8-1.93 203.35-24.29 46.87-61.77 77.52-112.69 91.63-70.24 10.01-133.64-10.57-194.29-43.49z"/> <path class="st10" d="m1295 936.23c-11.99 5.05-23.99 10.11-35.98 15.16 0 0 0.14 0.48 0.14 0.48-1.84-1.84-3.69-3.68-5.53-5.53l0.14-0.02c-1.75-1.73-3.49-3.47-5.24-5.2l-0.01-0.02c-1.74-1.74-3.48-3.49-5.22-5.23l-0.04-0.04c-1.74-1.74-3.48-3.49-5.22-5.23l0.21-0.53c-3.23-13.38-6.46-26.77-10-41.39 94.99-54.08 189.37-107.8 283.75-161.53 13.78-6.19 27.56-12.39 44.35-19.94 3.53 14.59 6.61 27.29 9.66 39.98-36.36 16.55-72.75 33.01-108.9 49.98-1.6 0.75-0.99 6.19-1.41 9.44l-0.85 2.24c-21.02 5.78-42.96 9.45-62.77 18.02-16.07 6.96-29.04 20.74-44.37 29.85-28.64 17.02-58 32.84-90.85 51.29 15 11.1 26.57 19.66 38.14 28.22z"/> <path class="st11" d="m1295 936.23c-11.57-8.56-23.15-17.13-38.13-28.21 32.86-18.45 62.21-34.27 90.85-51.29 15.33-9.11 28.29-22.89 44.37-29.85 19.81-8.57 41.75-12.24 62.76-18.01-0.01 0.01 2.44-0.16 2.44-0.16 0.41 0.9 1.04 1.59 1.9 2.09 0.21 1.18 0.61 2.29 1.19 3.34-19.42 8.64-38.83 17.27-58.37 25.95 6.37 9.25 11.18 16.24 16 23.23-10.68 1.16-21.36 2.32-32.05 3.48 1.55-28.78-11.45-5.48-23.59-6.2 8.45 4.24 12.02 6.04 15.6 7.84 3.48 3.78 6.96 7.56 10.6 11.52-28.09 18.15-55.94 36.14-83.79 54.12-3.26 0.71-6.52 1.43-9.78 2.15z"/> <path class="st12" d="m1455.8 806.62c0.42-3.25-0.18-8.69 1.41-9.44 36.15-16.97 72.54-33.43 108.9-49.98 5.55 7.7 11.08 15.4 18.96 26.37-42.85 13.62-73.58 58.32-125.8 37.21-0.85-0.49-1.48-1.18-1.88-2.07-0.2-0.93-0.74-1.63-1.59-2.09z"/> <path class="st12" d="m1418 863.32c-4.82-6.99-9.63-13.99-16-23.23 19.54-8.69 38.96-17.32 58.37-25.95 7.36 3.54 14.73 7.08 27.52 13.23-26.74 13.75-48.32 24.85-69.89 35.95z"/> <path class="st12" d="m1378 868.44c-3.57-1.8-7.15-3.59-15.6-7.84 12.14 0.72 25.15-22.58 23.59 6.2-2.66 0.55-5.32 1.09-7.99 1.64z"/> <path class="st10" d="m1169.5 955.59c-11.24-6.07-22.49-12.13-36.64-19.76 7.62-4.69 11.87-7.3 16.13-9.92 22.64-10.82 45.27-21.64 70.42-33.66 3.47 13.27 6.65 25.46 9.83 37.64-19.92 8.57-39.83 17.13-59.74 25.7z"/> <path class="st12" d="m1169.5 955.59c19.91-8.56 39.82-17.13 59.73-25.7 3.01 0.06 6.02 0.13 9.03 0.2 0.01 0-0.21 0.53-0.21 0.53 1.74 1.74 3.48 3.49 5.22 5.23l0.04 0.04c1.74 1.74 3.48 3.49 5.22 5.23 0 0 0.01 0.02 0.01 0.01 1.75 1.73 3.49 3.47 5.24 5.2 0 0-0.14 0.02-0.13 0.02 1.84 1.84 3.69 3.68 5.53 5.53 0 0-0.14-0.48-0.14-0.48-29.48 32.94-41.18 33.49-89.54 4.19z"/> <path class="st12" d="m538.96 1343.1c5.54-8.6 9.84-18.45 16.94-25.48 9.57-9.5 21.29-16.83 32.09-25.1 15.58 9.01 31.15 18.03 49.04 28.4-23.94 13.61-46.81 27.44-70.45 39.78-17.78 9.26-21.37-7.02-27.62-17.6z"/> <path class="st2" d="m935.95 1171.1c-6.68 3.35-13.36 6.71-20.04 10.06-1.34-1.1-2.61-2.28-3.8-3.54 6.98-3.53 13.97-7.07 20.95-10.6 1.13 1.24 2.1 2.6 2.89 4.08z"/> <path class="st2" d="m754.75 1293.7 10.5-5.28-10.5 5.28z"/> <path class="st1" d="m528.38 795.25c-37.28-45.07-31.43-92.28-3.72-138.17 29.37-48.65 68.81-86.72 128.06-95.41 68.78-10.09 116.51 39.46 102.82 107.61-14.03 69.83-57.08 118.09-119.84 149.76-38.92 6.27-75.05-0.06-107.32-23.79zm67.8-96.15c-0.38-26.33 4.47-50.23 31.6-62.4 21.69-9.73 41.7-7.33 58.85 10.28-3.47 0.63-7.12 0.79-10.37 1.99-7.34 2.72-14.49 5.96-21.72 8.99 4.16 7.87 6.36 18.58 12.86 23.05 15.24 10.49 24.56 0.81 23.87-23.65 4.5 16.63 9 33.25 13.68 50.53 16.48-55.16-17.87-99.53-68-88.91-34.14 7.23-52.76 37.61-49.31 80.46 10.76 43.35 39.5 63.08 73.87 47.29-35.16-0.5-57.12-15.33-65.33-47.63z"/> <path class="st1" d="m1064 781.21c-61.36-8.77-116.29-31.16-147.85-87.31-14.34-25.51-22.72-56.74-25.06-86.07-3.44-43.25 26.36-73.51 69.86-80.38 86.26-13.63 190.94 57.64 209.12 143.46 2.99 14.1 0.67 29.33 0.8 44.03-19.17 48.61-60.49 61.52-106.87 66.27zm-24.8-81c2.2-2.01 4.41-4.02 6.61-6.03 27.28-33.93 25.9-73.36-3.5-99.77-26.24-23.58-63.89-23.02-89.67 1.32-27.92 26.36-27.77 67.07 0.38 99.77 1.76 1.77 3.53 3.53 5.29 5.3 28.54 21.97 49.22 22.2 79.53 0.89l1.36-1.48z"/> <path class="st13" d="m528.38 795.25c32.27 23.73 68.39 30.06 107.31 23.8 34.13 32.25 35.71 40.79 13.96 75.49-15.44 11.75-29.89 25.32-46.73 34.51-9.18 5.01-22.48 3.78-33.81 3.17-10.13-0.55-20.1-4.11-30.14-6.34-40.95-29.86-54.25-55.42-41.56-92.11 5.08-14.65 20.35-25.78 30.97-38.52z"/> <path class="st13" d="m1064 781.21c46.37-4.76 87.7-17.66 106.87-66.27 38.55 2.24 60.41 24.59 62.02 63.42-3.52 40.84-43.06 77.01-81.78 73.9-7.82-0.63-15.72-0.08-23.59-0.11-43.07-0.13-62.4-19.39-63.44-63.23-0.02-2.56-0.05-5.14-0.08-7.71z"/> <path class="st5" d="m923.39 899.7c-23.87 20.2-39.76 45.1-44.87 76.33-9.05-0.98-19.72-5.55-26.86-2.32-31.97 14.45-62.56 6.57-93.12-2.94-4.77-1.48-8.2-8.34-11.53-13.21-14.95-21.92-29.92-43.85-44.19-66.21-2.91-4.57-2.83-11.05-4.13-16.65 16.1 5.59 32.21 11.18 48.3 16.8-9.81 41.04 10.41 68.68 51.93 71.06 33.91 1.94 51.08-8.82 65.54-47.87 9.5-25.67 18.29-47.76 51.55-45.78 7.21 0.43 14.74-4.64 22.13-7.17-2.29 10.97-4.59 21.94-6.88 32.92 0 0-0.09-0.2-0.1-0.22-3.46-0.92-6.91-1.82-10.36-2.71 0.86 2.65 1.72 5.31 2.59 7.97z"/> <path class="st3" d="m938.13 861.73c-7.38 2.54-14.92 7.6-22.13 7.17-33.26-1.98-42.05 20.11-51.55 45.78-14.46 39.05-31.62 49.81-65.54 47.87-41.52-2.38-61.74-30.02-51.93-71.06-16.09-5.62-32.19-11.21-48.3-16.8-0.72-4.71-1.44-9.41-2.15-14.12 47.18 38.06 129.75 0.75 116.51-61.38 3.24 0.06 6.47 0.12 9.71 0.18-0.68 46.16 11.05 60.95 56.65 61.8 19.91 0.37 40.33-7.15 59.85-13.25 9.25-2.89 16.91-10.87 25.29-16.54-8.81 10.12-17.61 20.24-26.41 30.35zm-91.41 64.44c7.17-16.82 14.35-33.63 21.39-50.14-20.28-9.44-35.83-16.69-50.01-23.29-16.22 10.7-32.64 19.14-45.86 31.11-8.33 7.54-11.88 20.37-17.57 30.82-0.04 23.14 15.58 32.42 34.69 35.3 23.03 3.48 45.88 2.44 57.36-23.8z"/> <path class="st5" d="m964.53 831.39c-8.38 5.67-16.04 13.65-25.29 16.54-19.51 6.1-39.93 13.62-59.85 13.25-45.61-0.85-57.33-15.63-56.65-61.8 1.01-1.28 2.32-2.08 3.93-2.39 25.32 30.14 79.87 37.26 112.23 14.52 4.23-2.97 7.48-8.11 12.06-9.64 7.54-2.53 15.8-2.94 23.75-4.25-1.47 7.38-2.57 14.86-4.56 22.1-1.11 4.1-3.69 7.79-5.62 11.67z"/> <path class="st5" d="m813.04 799.21c13.24 62.13-69.33 99.43-116.51 61.38 15.48-7.75 31.34-14.84 46.36-23.4 21.99-12.53 43.37-26.12 65.01-39.26 1.71 0.42 3.43 0.85 5.14 1.28z"/> <path class="st1" d="m813.04 799.21c-1.71-0.43-3.42-0.85-5.13-1.28-8.98-5.23-18.42-9.83-26.86-15.82-14.73-10.46-14.48-28.51 2.16-31.79 24.81-4.89 50.94-3.31 76.52-3.66 3.12-0.04 6.31 5.03 12.26 10.13-15.87 14.08-30.59 27.14-45.31 40.2-1.61 0.31-2.92 1.11-3.93 2.4-3.24-0.06-6.48-0.12-9.71-0.18z"/> <path class="st10" d="m807.91 1192.4c-10.72-50.12-10.71-50.12 35.9-75.92 3.78-2.09 7.53-4.26 11.25-6.46 41.89-24.75 41.88-24.76 69.61 14.98-6.44 3.69-13.2 6.93-19.24 11.18-12.17 8.58-23.19 19.09-36.08 26.29-19.85 11.08-40.89 20.06-61.44 29.93z"/> <path class="st12" d="m807.91 1192.4c20.54-9.87 41.59-18.85 61.45-29.94 12.9-7.2 23.91-17.71 36.08-26.29 6.04-4.25 12.79-7.48 19.24-11.18 9.22 7.16 18.43 14.32 30.5 23.7-10.85 9-16.48 13.67-22.12 18.34-6.98 3.53-13.97 7.07-20.95 10.6-35.69 17.09-71.38 34.19-109.59 52.49 2.06-14.38 3.73-26.05 5.39-37.72z"/> <path class="st9" d="m939.49 914.87c-51.44 67.38-43.32 145.27 22.32 213.1 6.06 6.26 12.63 12.03 18.96 18.03-2.18 2.11-4.35 4.23-6.53 6.34-55.63-42.18-85.5-98.11-81.87-167.92 1.08-20.72 14.85-41.31 25.2-60.68 2.86-5.33 14.38-6.04 21.92-8.87z"/> <path class="st14" d="m974.25 1152.3c2.18-2.11 4.35-4.23 6.53-6.34 31.25 15.87 62.5 31.74 93.74 47.6 0 0.82 0.01 1.64 0.01 2.47-20.82-6.19-41.64-12.39-62.45-18.58-12.61-8.38-25.22-16.77-37.83-25.15z"/> <path class="st4" d="m923.39 899.7c-0.87-2.66-1.73-5.32-2.6-7.99 3.45 0.9 6.9 1.79 10.36 2.71-2.58 1.78-5.17 3.53-7.76 5.28z"/> <path class="st1" d="m759.6 1120.7c-1.69-2.11-3.38-4.22-5.07-6.33 2.14-0.78 4.28-1.56 6.39-2.38-0.46 2.89-0.89 5.8-1.32 8.71z"/> <path class="st2" d="m1455.8 806.62c0.85 0.46 1.39 1.16 1.6 2.1-0.02-0.01-2.46 0.15-2.46 0.14 0.01-0.01 0.86-2.24 0.86-2.24z"/> <path class="st2" d="m1243.3 935.84c-1.74-1.74-3.48-3.49-5.22-5.23 1.74 1.75 3.48 3.49 5.22 5.23z"/> <path class="st2" d="m1248.6 941.11c-1.74-1.74-3.48-3.49-5.22-5.23 1.74 1.75 3.48 3.49 5.22 5.23z"/> <path class="st2" d="m1253.8 946.33c-1.75-1.73-3.49-3.47-5.24-5.2 1.75 1.73 3.49 3.47 5.24 5.2z"/> <path class="st1" d="m1259.2 951.87c-1.84-1.84-3.69-3.68-5.53-5.53 1.84 1.85 3.68 3.69 5.53 5.53z"/> <path class="st8" d="m686.61 646.97c-17.14-17.6-37.15-20-58.84-10.27-27.13 12.17-31.98 36.07-31.6 62.4-2.85 0.11-5.7 0.22-8.55 0.34-3.45-42.85 15.17-73.22 49.31-80.46 50.13-10.62 84.47 33.75 68 88.91-4.68-17.28-9.18-33.9-13.68-50.53l0.21 0.69c-1.82-3.76-3.65-7.51-5.47-11.27l0.62 0.19z"/> <path class="st5" d="m691.26 657.36c0.7 24.46-8.62 34.14-23.87 23.65-6.5-4.47-8.7-15.18-12.86-23.05 7.23-3.03 14.38-6.27 21.72-8.99 3.26-1.21 6.9-1.36 10.37-2l-0.61-0.19c1.82 3.76 3.65 7.51 5.47 11.27l-0.22-0.69z"/> <path class="st9" d="m587.62 699.43c2.85-0.11 5.7-0.22 8.55-0.34 8.21 32.3 30.17 47.13 65.31 47.62-34.36 15.8-63.1-3.93-73.86-47.28z"/> <path class="st9" d="m953.07 695.49c-28.14-32.7-28.29-73.41-0.37-99.77 25.78-24.34 63.43-24.9 89.67-1.32 29.4 26.42 30.78 65.84 3.5 99.77-1.31-2.15-2.63-4.3-3.94-6.46 13.67-22.25 18.33-45.07 4.27-69.03-2.53-2.9-5.05-5.8-7.57-8.71-31-27.4-72.15-23.15-90.01 10.2-13.49 25.2-6.41 48.64 9.68 70.32-1.75 1.68-3.49 3.34-5.23 5z"/> <path class="st9" d="m1037.9 701.68c-30.32 21.32-51 21.09-79.54-0.89 1.6-1.79 3.2-3.58 4.79-5.37 22.17 17.23 45.06 16.43 68.45 2.7 2.1 1.19 4.2 2.37 6.3 3.56z"/> <path class="st9" d="m1045.9 694.18c-2.2 2.01-4.41 4.02-6.61 6.03-0.73-2.34-1.45-4.67-2.18-7.01 1.61-1.83 3.23-3.66 4.84-5.48 1.32 2.15 2.63 4.31 3.95 6.46z"/> <path class="st9" d="m958.36 700.79c-1.76-1.77-3.53-3.53-5.3-5.3 1.74-1.66 3.48-3.33 5.22-4.99 1.62 1.64 3.24 3.28 4.86 4.91-1.58 1.8-3.18 3.59-4.78 5.38z"/> <path class="st9" d="m1039.2 700.21s-1.36 1.46-1.35 1.46c-2.09-1.19-4.19-2.37-6.29-3.56 1.82-1.64 3.64-3.28 5.47-4.91 0.72 2.34 1.44 4.68 2.17 7.01z"/> <path class="st15" d="m754.67 914.68c5.69-10.45 9.24-23.28 17.57-30.82 13.22-11.97 29.64-20.41 45.86-31.11 14.18 6.6 29.73 13.85 50.01 23.29-7.04 16.51-14.22 33.32-21.39 50.14-19.73-12.4-28.35-48.55-64.05-27.79 0.81 19.57-7.47 27.92-28 16.29z"/> <path class="st16" d="m754.67 914.68c20.53 11.62 28.81 3.28 28-16.29 35.71-20.77 44.32 15.38 64.05 27.79-11.48 26.24-34.33 27.27-57.36 23.8-19.11-2.88-34.73-12.16-34.69-35.3z"/> <path class="st1" d="m691.47 658.05c-1.82-3.76-3.65-7.51-5.47-11.27 1.83 3.75 3.65 7.51 5.47 11.27z"/> <path class="st1" d="m1037.1 693.21c-1.82 1.64-3.64 3.28-5.47 4.91-23.39 13.73-46.28 14.53-68.45-2.7-1.62-1.64-3.24-3.28-4.86-4.91-16.09-21.68-23.17-45.12-9.68-70.32 17.85-33.35 59.01-37.6 90.01-10.2-1.26 1.3-2.53 2.6-3.79 3.9-10.31 0.47-20.63 0.94-30.94 1.41 0.86 7.25-0.89 17.8 3.17 21.03 7.22 5.74 17.97 7.04 27.24 10.2 2.66-8.21 5.31-16.42 7.97-24.64 1.31-1.07 2.61-2.14 3.93-3.21 14.05 23.97 9.4 46.78-4.27 69.04-1.63 1.83-3.25 3.66-4.86 5.49z"/> <path class="st1" d="m1038.6 609.98c2.52 2.9 5.04 5.81 7.57 8.71-1.31 1.06-2.61 2.13-3.92 3.2-2.48-2.67-4.96-5.34-7.44-8.01 1.27-1.3 2.53-2.6 3.79-3.9z"/> <path class="st5" d="m1034.8 613.88c2.48 2.67 4.96 5.34 7.44 8.01-2.66 8.21-5.31 16.42-7.97 24.64-9.27-3.16-20.02-4.46-27.24-10.2-4.06-3.23-2.3-13.78-3.17-21.03 10.32-0.47 20.63-0.95 30.94-1.42z"/> </svg>