<?xml version='1.0' encoding='utf-8'?>
<svg xmlns="http://www.w3.org/2000/svg" width="117.65mm" height="91.055mm" version="1.1" viewBox="0 0 117.65 91.055"><g transform="translate(-32.877 -112.38)"><path d="m89.577 115.91s0.97557-0.92437 1.8318-1.2783c0.8562-0.35389 1.8951-0.51372 1.8951-0.51372s2.4512 4.1768 3.0488 10.068c0.46725 4.6068-0.23129 11.116-0.23129 11.116l-2.3582-0.39369s0.75742-3.5452-1.2054-11.508c-1.0075-4.0874-2.9807-7.4901-2.9807-7.4901z" style="paint-order:stroke fill markers"/><path d="m94.662 118.75s1.2329-2.58 4.8632-3.4705c3.6303-0.89045 7.2236 0.0158 9.1328-0.43381 1.2974-0.30554 3.128-2.4659 3.128-2.4659s4.3002 11.108-5.845 11.69c-5.571 0.31964-6.3702-2.854-10.023-2.9225-5.554-0.10413-1.2558-2.3974-1.2558-2.3974z" style="paint-order:stroke fill markers"/><path d="m59.219 164.42s-6.067 2.7036-9.6758 10.522c-2.8691 6.2162-3.4338 12.532-3.4338 12.532s-3.4793-1.3881-8.3953 0.0323c-4.3199 1.2482-5.1994 3.662-4.7198 5.5238 0.55898 2.1701 4.9262 1.8953 4.9262 1.8953s-4.3116 2.9131-1.6258 5.2612c2.4555 2.1467 8.2507-0.33579 8.2507-0.33579s-1.6358 2.2626 0.4896 3.1107c2.3344 0.93152 6.7828 0.72603 9.351-2.78 2.3315-3.1828 2.6257-6.4497 2.6257-6.4497s7.5995 1.3949 8.213-1.2852c0.6135-2.68-2.8738-4.1653-6.135-4.7466-3.2612-0.58121-3.8146-0.92118-4.6497-1.5176-0.11302-0.0807-0.41976-3.3581 1.5822-8.6536 2.0019-5.2955 5.2632-9.1379 5.2632-9.1379z" style="paint-order:stroke fill markers"/><path d="m58.972 165.87s-5.353 3.3682-8.3435 9.3648c-2.9254 5.8659-3.6759 13.612-3.6759 13.612s-2.984-1.7621-7.5125-0.877c-3.703 0.72375-5.603 2.2275-5.2882 4.3916 0.37875 2.6041 6.86 1.3203 6.86 1.3203s-6.4863 3.9906-3.9001 5.9476c2.2337 1.6903 9.691-1.3983 9.691-1.3983s-3.6352 3.6506-0.21141 4.0949c2.5411 0.32976 5.4589-0.72265 7.4514-3.3664 1.9924-2.6438 2.2221-6.4636 2.2221-6.4636s7.3964 1.4705 7.8427-0.45862c0.51995-2.2476-3.812-3.26-6.5484-3.7477-2.7364-0.48768-3.2547-1.2367-3.9554-1.7372-0.09483-0.0677-0.62985-2.337 0.61214-6.922 1.383-5.1054 5.2373-11.812 5.2373-11.812z" fill="#c70000" style="paint-order:stroke fill markers"/><path d="m123.84 167.59s2.6742 1.3121 6.1989 6.5696c3.532 5.2684 2.1366 10.813 2.1366 10.813s-10.185 1.9332-8.9063 5.0383c1.1598 2.8167 9.8863 1.0503 9.8863 1.0503s7.6045 4.9233 10.144 2.8069c1.526-1.2718 0.38747-2.2603 0.38747-2.2603s4.5851-0.16145 4.3268-2.1634c-0.25832-2.002-1.0171-1.6468-1.0171-1.6468s3.3582 0.44261 3.5262-1.8385c0.14969-2.0316-2.1689-1.8637-6.061-2.9726-3.8397-1.094-5.1986-1.3562-5.1986-1.3562s0.0505-4.7081-5.9315-11.923c-5.982-7.2149-10.633-9.2868-10.633-9.2868z" style="paint-order:stroke fill markers"/><path d="m122.65 165.31s4.1943 1.9536 8.2631 8.2832c3.6018 5.6031 2.3319 12.201 2.3319 12.201s-9.8464 1.4824-8.8632 3.8733c0.8329 2.0254 9.0128 0.44066 9.0128 0.44066s7.118 4.9586 9.2464 3.1848c1.279-1.066-0.82147-2.621-0.82147-2.621s5.7481 0.30058 5.5316-1.3774c-0.21651-1.678-2.9382-2.3247-2.9382-2.3247s5.191 0.92791 5.3319-0.98391c0.12545-1.7028-3.0772-1.546-6.2102-2.4915-3.2036-0.96692-4.8739-1.3789-4.8739-1.3789s0.12303-2.8483-4.5356-9.6705c-4.4299-6.4872-10.527-10.238-10.527-10.238z" fill="#c70000" style="paint-order:stroke fill markers"/><path d="m94.866 134.07s-5.4892-5.5538-14.078-5.1663c-8.589 0.38748-23.426 12.867-23.749 35.405s8.9916 29.765 35.842 29.677c27.764-0.0913 34.052-19.452 32.33-35.618-1.3978-13.123-4.1496-25.857-15.937-28.997-6.4394-1.7153-14.408 4.6992-14.408 4.6992z" style="paint-order:stroke fill markers"/><path d="m94.819 135.49s-5.7833-5.8193-13.881-5.454c-8.0979 0.36532-22.322 13.831-22.691 33.595-0.39672 21.248 7.9846 29.018 34.03 29.198 26.359 0.18262 33.649-18.04 31.934-33.922-1.3358-12.37-4.0066-25.642-15.12-28.603-6.0712-1.6172-14.272 5.1852-14.272 5.1852z" fill="#c70000" style="paint-order:stroke fill markers"/><path d="m38.58 194.17s3.2139-1.2436 4.555-1.4757c2.5496-0.4412 3.7787 0.39992 3.7787 0.39992s-2.2375-0.22067-4.1554 0.35857c-1.9179 0.57924-3.4015 1.3633-3.4015 1.3633z" style="paint-order:stroke fill markers"/><path d="m45.334 199.11 0.45205 0.11302s1.0171-1.114 2.341-1.9212c1.3239-0.80723 2.7769-0.87181 2.7769-0.87181s-1.3723-0.6135-3.1805 0.45205c-1.7172 1.0119-2.3894 2.228-2.3894 2.228z" style="paint-order:stroke fill markers"/><path d="m91.01 116.19s0.23988-0.40317 0.84935-0.631c0.60947-0.22784 0.95972-0.19042 0.95972-0.19042s2.1535 5.0422 2.5908 9.1079c0.44026 4.0936 0.1333 8.9202 0.1333 8.9202l-0.42029 0.27763-0.28012-0.29231s-0.03016-4.9397-0.62488-8.3907c-0.8056-4.6748-3.2079-8.8013-3.2079-8.8013z" fill="#502d16" style="paint-order:stroke fill markers"/><path d="m143.12 191.4-0.45205 0.11302s-1.0171-1.114-2.341-1.9212c-1.3239-0.80723-2.7769-0.87181-2.7769-0.87181s1.3723-0.6135 3.1805 0.45205c1.7172 1.0119 2.3894 2.228 2.3894 2.228z" style="paint-order:stroke fill markers"/><path d="m147.03 187.5s-2.8143-1.4377-4.1554-1.6697c-2.5496-0.4412-3.7787 0.39992-3.7787 0.39992s2.2376-0.22067 4.1554 0.35857c1.9179 0.57924 3.4015 1.3633 3.4015 1.3633z" style="paint-order:stroke fill markers"/><path d="m95.793 120.15s2.751 0.42714 4.0294 1.2418c1.9453 1.2396 4.9913 2.1914 8.1889 1.3139 5.497-1.5084 3.4886-9.2128 3.4886-9.2128s-0.4016 2.1305-3.569 2.4027c-2.315 0.19895-4.0158-0.51983-7.3953 0.0612-3.9373 0.67696-5.1457 2.985-5.1457 2.985 0.136 0.40218 0.26935 0.80523 0.40307 1.2082z" fill="#447821" style="paint-order:stroke fill markers"/><path d="m96.747 119.04s2.7199-1.8121 5.9208-1.4564c3.2009 0.35573 5.5073 2.4146 8.2798-0.54924-0.25405 0.6017-2.0534 3.1734-5.9226 1.7921s-8.2779 0.21353-8.2779 0.21353z" style="paint-order:stroke fill markers"/><path d="m114.91 165.77s-3.5618 6.3682-17.616 6.9216c-15.174 0.5975-21.376-4.5115-21.376-4.5115s5.1458 6.5244 21.35 5.7315c16.204-0.79287 18.801-8.4314 17.642-8.1416z" style="paint-order:stroke fill markers"/><path d="m90.917 173.11s0.62321-2.5762-1.2334-4.2391c-1.8566-1.6629-2.8899-1.3723-2.8899-1.3723s-0.09687-1.1624-2.2926-2.2764c-2.1957-1.114-7.3051 0.13752-10.115 4.1433-2.8227 4.0247-3.2944 7.5575-0.05663 9.9349 2.1979 1.6138 4.7557 2.1481 6.2939 1.6365 2.148-0.71441 3.8213-3.5534 5.3948-5.0592 3.2288-3.0899 4.8983-2.7677 4.8983-2.7677z" style="paint-order:stroke fill markers"/><path d="m90.287 172.25s0.0602-1.7856-1.5476-3.2256c-1.6078-1.44-2.5939-1.1084-2.5939-1.1084s-0.0953-1.0751-1.9967-2.0398c-1.9014-0.96467-6.4683 0.16302-8.9573 3.5919-1.668 2.2979-4.0217 6.3912-0.30459 9.1348 1.8998 1.4023 4.0129 2.0096 5.8244 1.3839 1.8529-0.63998 2.7575-2.8843 4.8087-4.792 2.0512-1.9078 4.7669-2.9447 4.7669-2.9447z" fill="#ff8080" style="paint-order:stroke fill markers"/><path d="m86.457 167.5s-1.7659 0.30239-4.4993 2.0512c-2.4523 1.569-3.2194 4.604-3.2194 4.604s1.2431-2.6639 3.794-4.3429c2.5509-1.679 4.1492-1.8889 4.1492-1.8889z" style="paint-order:stroke fill markers"/><path d="m95.351 143.4c-4.6497-0.96869-10.107 3.5196-11.786 10.042-1.6791 6.5225 0.93639 11.043 7.2006 11.818 6.2642 0.77494 9.2309-5.0125 9.5577-10.526 0.31255-5.2733-0.32287-10.365-4.9726-11.334z" style="paint-order:stroke fill markers"/><path d="m95.206 144.46c-4.0814-0.84547-9.2056 3.4444-10.679 9.1371-1.4738 5.6927 0.91768 9.9872 6.4162 10.664 5.4985 0.67636 8.2463-4.6921 8.5331-9.5045 0.27435-4.6024-0.18847-9.4506-4.2699-10.296z" fill="#fff" style="paint-order:stroke fill markers"/><path d="m105.89 142.61c4.0777-0.92919 8.8632 3.376 10.336 9.6326 1.4725 6.2565-0.8212 10.593-6.3147 11.336-5.4935 0.74334-8.0953-4.8081-8.3819-10.097-0.27409-5.0583 0.28315-9.9423 4.3608-10.871z" style="paint-order:stroke fill markers"/><path d="m106.14 143.61c3.5271-0.8093 7.9555 3.297 9.2292 8.7462 1.2737 5.4491-0.79306 9.5598-5.5449 10.207-4.7518 0.64741-7.1264-4.4914-7.3743-9.0979-0.2371-4.4055 0.16288-9.0463 3.69-9.8556z" fill="#fff" style="paint-order:stroke fill markers"/><path d="m106.25 143.49c3.5825-0.81107 7.9433 3.4643 9.2354 9.0846 0.14889 0.64758-2.3108-1.5735-7.161-1.2865l-5.9897 1.3217c-0.10931-4.1859 0.38689-8.321 3.9153-9.1198z" fill="#c70000" style="paint-order:stroke fill markers"/><path d="m95.061 144.4c-4.0863-0.82152-9.0603 3.509-10.534 9.2017-0.16982 0.65593 2.6357-1.5938 8.1681-1.3031l6.8319 1.3388c0.12468-4.2398-0.44129-8.4282-4.4659-9.2373z" fill="#c70000" style="paint-order:stroke fill markers"/><path d="m83.791 154.05s3.0998-1.1947 7.9432-1.1624c4.8434 0.0323 7.9755 0.96868 7.9755 0.96868l0.09687-1.1624s-3.2935-0.90412-7.8463-0.96869c-4.3268-0.0614-7.7172 1.0333-7.7172 1.0333z" style="paint-order:stroke fill markers"/><path d="m101.82 153.98s2.7041-1.361 7.0444-1.5921c4.3402-0.23108 7.2024 0.53329 7.2024 0.53329l0.0164-1.1655s-3.0048-0.7234-7.0867-0.54033c-3.8793 0.17396-6.8497 1.4509-6.8497 1.4509z" style="paint-order:stroke fill markers"/><ellipse transform="matrix(.9934 .11468 -.091183 .99583 0 0)" cx="110.18" cy="143.13" rx="1.8997" ry="2.8478" style="paint-order:stroke fill markers"/><ellipse transform="matrix(.9934 .11468 -.091183 .99583 0 0)" cx="110.87" cy="143.18" rx=".59331" ry=".88941" fill="#fff" style="paint-order:stroke fill markers"/><ellipse transform="matrix(-.99369 .1122 .093206 .99565 0 0)" cx="-90.652" cy="165.72" rx="1.7543" ry="2.5735" style="paint-order:stroke fill markers"/><ellipse transform="matrix(-.99369 .1122 .093206 .99565 0 0)" cx="-90.02" cy="165.77" rx=".5479" ry=".80373" fill="#fff" style="paint-order:stroke fill markers"/><path d="m70.528 140.69c-4.5889 5.2191-6.2644 11.59-3.2292 12.839 2.4091 0.99186 2.4091-2.9205 5.3307-6.4472s6.7146-4.243 7.0221-7.1084c0.30754-2.8654-4.5348-4.5027-9.1237 0.71635z" fill="#ff8080" style="paint-order:stroke fill markers"/><path d="m67.025 155.24c-1.6838-0.14032-3.2741 2.1048-1.8241 3.4144 1.4499 1.3096 3.8821 0.37418 3.9289-0.60804 0.04677-0.98221 0.04677-2.4322-2.1047-2.8063z" fill="#ff8080" style="paint-order:stroke fill markers"/></g></svg>