<?xml version='1.0' encoding='utf-8'?>
<svg xmlns="http://www.w3.org/2000/svg" enable-background="new 0 0 360 428.986" overflow="visible" version="1.1" viewBox="0 0 360 428.99"> <path d="m207.03 211.94c0 23.821-9.244 64.422-27.29 64.422s-27.29-40.601-27.29-64.422 9.244-43.13 27.29-43.13 27.29 19.309 27.29 43.13z" fill="#333" stroke="#000" stroke-linecap="round" stroke-linejoin="round" stroke-width="2.602" style=""/> <path d="m204.36 196.4c0.415 2.639 0.633 5.365 0.633 8.151 0 23.041-9.337 63.022-27.483 63.022-13.601 0-16.798-15.841-21.789-30.817 2.272 19.015 7.809 38.846 23.732 38.846 18.146 0 27.483-39.982 27.483-63.023 0-5.732-0.919-11.201-2.576-16.179z" fill-opacity=".314" style=""/> <linearGradient id="a" x1="666.28" x2="666.28" y1="-178.48" y2="-182.93" gradientTransform="matrix(-.99351 .48003 .46485 .94048 934.14 116.97)" gradientUnits="userSpaceOnUse"> <stop stop-color="#fab044" offset="0"/> <stop stop-color="#c67729" offset="1"/> </linearGradient> <path d="m185.19 271.46c-1.869-3.781-1.466-7.771 0.9-8.912 2.365-1.142 5.792 0.994 7.66 4.769 1.869 3.781 1.465 7.77-0.9 8.912-2.365 1.141-5.798-0.995-7.66-4.769z" fill="url(#a)" stroke="#000" stroke-linecap="round" stroke-linejoin="round" stroke-width="2.625" style=""/> <linearGradient id="b" x1="675.21" x2="675.21" y1="-178.48" y2="-182.93" gradientTransform="matrix(-.99351 .48003 .46485 .94048 953.39 107.67)" gradientUnits="userSpaceOnUse"> <stop stop-color="#fab044" offset="0"/> <stop stop-color="#c67729" offset="1"/> </linearGradient> <path d="m195.56 266.45c-1.869-3.781-1.465-7.77 0.9-8.912 2.365-1.141 5.792 0.995 7.66 4.769 1.869 3.781 1.465 7.771-0.9 8.912-2.365 1.142-5.798-0.994-7.66-4.769z" fill="url(#b)" stroke="#000" stroke-linecap="round" stroke-linejoin="round" stroke-width="2.625" style=""/> <linearGradient id="c" x1="670.81" x2="670.81" y1="-179.94" y2="-185.23" gradientTransform="matrix(-.99351 .48003 .46485 .94048 943.95 112.25)" gradientUnits="userSpaceOnUse"> <stop stop-color="#fab044" offset="0"/> <stop stop-color="#c67729" offset="1"/> </linearGradient> <path d="m189.81 267.63c-2.216-4.487-2.098-9.053 0.267-10.195s6.078 1.571 8.3 6.058c2.216 4.487 2.098 9.053-0.267 10.195-2.365 1.141-6.077-1.572-8.3-6.058z" fill="url(#c)" stroke="#000" stroke-linecap="round" stroke-linejoin="round" stroke-width="2.625" style=""/> <g transform="matrix(.62079 0 0 .61377 21.334 117.9)" stroke="#000" stroke-linecap="round" stroke-linejoin="round" style=""> <linearGradient id="d" x1="475.8" x2="475.8" y1="-81.261" y2="-85.708" gradientTransform="matrix(1.6004 .7821 -.7488 1.5323 -582.46 -1.516)" gradientUnits="userSpaceOnUse"> <stop stop-color="#fab044" offset="0"/> <stop stop-color="#c67729" offset="1"/> </linearGradient> <path d="m246.4 250.2c3-6.16 2.35-12.66-1.46-14.52-3.8-1.86-9.33 1.62-12.34 7.77-3.01 6.16-2.36 12.66 1.45 14.52s9.34-1.62 12.35-7.77z" fill="url(#d)" stroke-width="2.625"/> <linearGradient id="e" x1="484.73" x2="484.73" y1="-81.26" y2="-85.708" gradientTransform="matrix(1.6004 .7821 -.7488 1.5323 -613.46 -16.665)" gradientUnits="userSpaceOnUse"> <stop stop-color="#fab044" offset="0"/> <stop stop-color="#c67729" offset="1"/> </linearGradient> <path d="m229.7 242.04c3-6.16 2.35-12.66-1.46-14.52-3.8-1.86-9.33 1.62-12.34 7.77-3.01 6.16-2.36 12.66 1.45 14.52s9.34-1.62 12.35-7.77z" fill="url(#e)" stroke-width="2.625"/> <linearGradient id="f" x1="480.33" x2="480.33" y1="-82.72" y2="-88.004" gradientTransform="matrix(1.6004 .7821 -.7488 1.5323 -598.18 -9.2)" gradientUnits="userSpaceOnUse"> <stop stop-color="#fab044" offset="0"/> <stop stop-color="#c67729" offset="1"/> </linearGradient> <path d="M238.95 243.96c3.57-7.31 3.38-14.75-.43-16.61s-9.79 2.56-13.37 9.87c-3.57 7.31-3.38 14.75.43 16.61s9.8-2.56 13.37-9.87z" fill="url(#f)" stroke-width="2.625"/> <path d="m289.82 190.8c28.39-17.48 63.35-13.65 63.35-13.65 37.86-28.69 74.57 0 74.57 0 35-41.31 80.32 0 80.32 0 13.19-82.037-144.57-108.43-144.57-108.43-30.33 54.99-84.99 36.72-84.99 36.72" fill="#333" stroke-width="3"/> <g fill="#333" stroke-width="3"> <path d="m427.54 174.04s21.8-47.78-62.23-103.54m-12.53 104.25s26.04-50.09 12.21-104.18"/> </g> <g fill="#333" stroke-width="3"> <path d="m220.52 190.8c-28.39-17.48-63.35-13.65-63.35-13.65-37.86-28.69-74.573 0-74.573 0-34.994-41.31-80.313 0-80.313 0-13.195-82.037 144.57-108.43 144.57-108.43 30.33 54.99 84.99 36.72 84.99 36.72"/> <path d="M82.804 174.04S61.003 126.26 145.03 70.5M157.56 174.75s-26.04-50.09-12.2-104.18"/> </g> </g> <path d="m197.79 174.12s-8.498 7.453-18.673 7.453c-7.785 0-12.081-3.054-16.842-6.831 0 0 6.14 9.078 17.953 9.078 13.44 0 17.562-9.7 17.562-9.7z" fill-opacity=".314" style=""/> <g transform="matrix(.62079 0 0 .61377 21.334 117.9)" style=""> <path d="M304.46 1.5c-13.92 2.347-26.39 17.749-29.76 22.223a41.808 41.808 0 00-19.46-4.785c-7.06 0-13.72 1.753-19.56 4.836-3.31-4.405-15.82-19.918-29.8-22.274 0 0-11.36 52.004 7.42 61.295.98 22.316 19.38 40.105 41.94 40.105 22.58 0 40.99-17.826 41.94-40.176 18.58-9.478 7.28-61.224 7.28-61.224z" fill="#333" stroke="#000" stroke-linecap="round" stroke-linejoin="round" stroke-width="3"/> <path d="M295.98 62.765s-7.35 33.15-42.94 33.15c-17.07 0-31.73-9.15-37.99-22.189 3.78 16.627 20.45 29.174 40.43 29.174 22.77 0 41.24-16.273 41.24-36.329 0-4.995-.74-3.806-.74-3.806z" fill-opacity=".314"/> <path d="M287.95 41.426c-3.83-7.167-9.65-11.778-9.65-11.778s9.17-13.247 19.62-15.007c0 0 6.62 34.886-6.64 39.61 0-.001.05-6.499-3.33-12.825z" fill="#f1aac2"/> <path d="M291.27 54.612a1.07 1.07 0 01.65-1.371c2.66-.946 4.42-3.319 5.56-6.706 1.13-3.364 1.55-7.631 1.54-11.914 0-4.925-.54-9.877-1.08-13.588-.33-2.277-.65-4.079-.86-5.132-6.91 1.67-13.5 8.744-16.35 12.322-1.01 1.244-1.55 2.033-1.55 2.035a1.072 1.072 0 11-1.76-1.222c.1-.047 9.17-13.475 20.32-15.454.56-.095 1.1.269 1.23.828 0 .041 2.19 10.057 2.2 20.211-.01 4.422-.41 8.871-1.65 12.593-1.23 3.704-3.37 6.792-6.88 8.045a1.077 1.077 0 01-1.37-.647z"/> <path d="M222.61 41.426c3.83-7.167 9.65-11.778 9.65-11.778s-9.18-13.247-19.62-15.007c0 0-6.62 34.886 6.64 39.61 0-.001-.06-6.499 3.33-12.825z" fill="#f1aac2"/> <path d="M219.29 54.612a1.07 1.07 0 00-.65-1.371c-2.66-.946-4.43-3.319-5.57-6.706-1.12-3.364-1.54-7.631-1.54-11.914 0-4.925.54-9.877 1.08-13.588.33-2.277.66-4.079.87-5.132 6.91 1.67 13.5 8.744 16.35 12.322 1 1.244 1.55 2.033 1.55 2.035a1.07 1.07 0 101.76-1.222c-.1-.047-9.17-13.475-20.32-15.454a1.072 1.072 0 00-1.23.828c-.01.041-2.2 10.057-2.2 20.211 0 4.422.41 8.871 1.65 12.593 1.23 3.704 3.37 6.792 6.88 8.045a1.077 1.077 0 001.37-.647z"/> <path d="m242.72 35.045c-8.92 0-16.16 8.375-16.16 18.696 0 10.319 7.24 18.695 16.16 18.695 5.24 0 9.89-2.895 12.84-7.375 2.96 4.483 7.62 7.375 12.86 7.375 8.92 0 16.17-8.376 16.17-18.695 0-10.321-7.25-18.696-16.17-18.696-5.24 0-9.9 2.894-12.86 7.376-2.95-4.479-7.6-7.376-12.84-7.376z" fill="#fff" stroke="#000" stroke-linecap="round" stroke-width="2.832"/> <path d="M254.54 55.006a4.676 4.676 0 01-4.68 4.679 4.683 4.683 0 01-4.68-4.679c0-2.585 2.1-4.68 4.68-4.68a4.677 4.677 0 014.68 4.68z" stroke="#000" stroke-linecap="round" stroke-width="1.795"/> <path d="M249.39 53.367c0 .67-.55 1.213-1.21 1.213a1.213 1.213 0 110-2.427c.66 0 1.21.544 1.21 1.214z" fill="#fff"/> <path d="M266.39 55.006a4.674 4.674 0 11-9.35 0 4.675 4.675 0 119.35 0z" stroke="#000" stroke-linecap="round" stroke-width="1.795"/> <path d="M261.24 53.367c0 .67-.54 1.213-1.21 1.213s-1.22-.543-1.22-1.213.55-1.214 1.22-1.214 1.21.544 1.21 1.214z" fill="#fff"/> </g> <path d="m247.67 159.81c30.704 17.933 84.402 30.719 89.456 66.453 0 0 2.309-7.697-1.484-17.523-14.104-36.52-87.972-48.93-87.972-48.93z" fill-opacity=".314" style=""/> </svg>